<svg xmlns="http://www.w3.org/2000/svg" version="1" viewBox="0 0 674 674"><path d="M315.3 32.1c-55.7 3.5-112.2 23.9-157.9 57C73 150.2 25.5 250.7 31.9 354.5c2.7 43.5 11.4 77.4 29.6 115.2C99.4 548.4 165.7 604.8 250 630.3c46.8 14.2 101.2 16.1 152.5 5.6 37.9-7.9 81.3-27.2 114.1-51 84.4-61.1 131.9-161.6 125.5-265.4-2.7-43.5-11.4-77.4-29.6-115.2-30.8-64-78.8-112-142.8-142.8-37.2-17.9-71.4-26.8-113.3-29.5-17.5-1.1-23-1.1-41.1.1z"/><g fill="#ff7f00"><path d="M306.7173418.60736c-26.7 3.1-40.1 5.5-58.5 10.4-123.5 32.8-218.8 135.1-242.9 260.5-4.4 23-5.1 31.3-5.1 64.5s.7 41.5 5.1 64.5c25.7 133.7 132.2 240.2 265.9 265.9 23 4.4 31.3 5.1 64.5 5.1s41.5-.7 64.5-5.1c133.7-25.7 240.2-132.2 265.9-265.9 4.4-23 5.1-31.3 5.1-64.5s-.7-41.5-5.1-64.5c-24.1-125.4-119.5-227.7-242.9-260.5-30.5-8.1-46.4-10.1-83-10.5-16.5-.2-31.6-.1-33.5.1zm46.5 35.4c62.7 4.3 116.3 24.4 167 62.9 12.9 9.7 42.9 39.7 52.6 52.6 23.2 30.6 40.1 63.1 50.3 96.8 17.4 57.6 17.4 117.8 0 175.4-10.2 33.7-27.1 66.2-50.3 96.8-9.7 12.9-39.7 42.9-52.6 52.6-30.6 23.2-63.1 40.1-96.8 50.3-49.9 15.1-102.1 17.2-152.7 5.9-43.1-9.5-82.2-27.9-119.5-56.2-12.9-9.7-42.9-39.7-52.6-52.6-28.3-37.3-46.7-76.4-56.2-119.5-11.3-50.6-9.2-102.8 5.9-152.7 10.2-33.7 27.1-66.2 50.3-96.8 9.7-12.9 39.7-42.9 52.6-52.6 49.9-37.8 104.8-58.7 165-62.8 17.4-1.2 20.4-1.2 37-.1z"/><path d="M310.2173418 59.60736c-1.6.2-8.4 1.1-15 2-57.4 7.7-113 35.7-155.6 78.3-42.6 42.6-69.1 95.2-78.5 155.6-2.7 17.3-2.7 63.7 0 81 9.4 60.4 35.9 113 78.5 155.6 42.6 42.6 95.2 69.1 155.6 78.5 17.3 2.7 63.7 2.7 81 0 60.4-9.4 113-35.9 155.6-78.5 36.7-36.7 61-79.8 73.3-130.1 6.1-24.4 7.1-34.2 7.1-66 0-31.8-1-41.6-7.1-66-12.3-50.3-36.6-93.4-73.3-130.1-42.4-42.4-95-69-155.1-78.5-10-1.5-58.6-2.9-66.5-1.8zm54.5 172.9v33.5h-98v38h60v64h-60v38h38v67h-156v-67h37v-140h-37v-67h216zm156 0v33.5h-36v140h37v67h-156v-67h37v-38h-39v-64h39v-105h118z"/></g></svg>